<?xml version="1.0" encoding="utf-8"?>
<!-- Generator: Adobe Illustrator 22.0.1, SVG Export Plug-In . SVG Version: 6.00 Build 0)  -->
<svg version="1.1" id="Capa_2_1_" xmlns="http://www.w3.org/2000/svg" xmlns:xlink="http://www.w3.org/1999/xlink" x="0px" y="0px"
	 viewBox="0 0 150.8 52.7" style="enable-background:new 0 0 150.8 52.7;" xml:space="preserve">
<style type="text/css">
	.st0{fill:#3BE282;}
	.st1{fill:#52B4F7;}
</style>
<path class="st0" d="M28.8,36.4l-5.9-5.1c-0.2-0.2-0.3-0.4-0.3-0.7c0-0.3,0.1-0.5,0.3-0.7l4.4-3.9c0.7-0.6,1.1-1.6,1.1-2.6
	c0-1-0.4-2-1.2-2.7c-0.8-0.7-1.8-1.1-2.8-1.1c-0.8,0-1.6,0.3-2.3,0.9l-6.2,5.6c-0.3,0.2-0.7,0.3-1,0.2c-0.3-0.1-0.6-0.5-0.5-0.8
	l0-11.8c0-1-0.3-1.8-1.1-2.6c-0.6-0.6-1.6-1-2.6-1c-1,0-2,0.4-2.7,1.1c-0.8,0.8-1.1,1.6-1.1,2.5v25.4c0,0.9,0.4,1.9,1.1,2.6
	c0.7,0.7,1.7,1.1,2.7,1.1c1,0,1.9-0.4,2.6-1c0.7-0.7,1-1.6,1-2.6v-3.4c0-0.4,0.2-0.7,0.5-0.8c0.3-0.1,0.7-0.1,1,0.2l7.3,6.5
	c0.9,0.8,1.8,1.2,2.8,1.2c1,0,1.9-0.4,2.6-1.2c0.7-0.8,1.1-1.8,1.1-2.7C29.7,37.7,29.4,36.9,28.8,36.4z"/>
<path class="st1" d="M41.2,9.5c-0.8-0.7-1.8-1.1-2.8-1.1c-1,0-2,0.4-2.8,1.1c-0.7,0.7-1.2,1.7-1.2,2.7c0,1.1,0.4,2,1.2,2.7
	c0.8,0.8,1.7,1.2,2.8,1.2c1,0,2-0.4,2.8-1.2c0.7-0.7,1.2-1.7,1.2-2.7C42.4,11.2,42,10.2,41.2,9.5z"/>
<path class="st0" d="M34.6,39.4c0,0.9,0.4,1.9,1.1,2.6c0.7,0.7,1.7,1.1,2.7,1.1c1,0,1.9-0.4,2.6-1.1c0.7-0.7,1.1-1.6,1.1-2.6V22.8
	c0-1-0.4-1.9-1.1-2.6c-0.7-0.7-1.6-1.1-2.6-1.1c-1,0-2,0.4-2.7,1.1c-0.7,0.7-1.1,1.7-1.1,2.6V39.4z"/>
<path class="st0" d="M64.6,20.7c-2-1.1-4-1.6-6.1-1.6c-3.1,0-6.1,1.2-8.4,3.4c-2.3,2.3-3.5,5.2-3.5,8.3v8.2c0,1,0.4,1.9,1.1,2.6
	c0.7,0.7,1.7,1.1,2.7,1.1c1,0,1.9-0.4,2.6-1c0.7-0.7,1-1.6,1-2.6v-8.4c0-1.2,0.5-2.1,1.4-2.9c0.8-0.7,1.9-1.1,3-1.1
	c1.1,0,2.3,0.4,3.3,1.2c1.1,0.9,1.7,2,1.7,3.2v8.1c0,0.9,0.4,1.9,1.1,2.6c0.7,0.7,1.7,1.1,2.7,1.1c1,0,1.9-0.4,2.6-1
	c0.7-0.7,1-1.6,1-2.6v-8.3c0-2.1-0.6-4-1.8-5.8C68.1,23.2,66.6,21.8,64.6,20.7z"/>
<path class="st0" d="M92.9,33.4c-1.1,0-1.9,0.4-2.9,1.3c-0.6,0.6-1.4,0.8-2.6,0.8c-1.2,0-2.2-0.5-3-1.4c-0.7-0.8-1.2-1.9-1.2-3.1v-5
	c0-0.5,0.4-0.9,0.9-0.9h5.7c1,0,2-0.4,2.6-1c0.7-0.8,0.8-1.1,0.8-2.1c0-1-0.1-1.5-0.8-2.2c-0.7-0.7-1.7-1.1-2.6-1.1h-5.7
	c-0.5,0-0.9-0.4-0.9-0.9v-2.5c0-1-0.4-1.9-1.2-2.7c-0.8-0.7-1.8-1.1-2.8-1.1c-1,0-1.9,0.4-2.6,1.1c-0.7,0.7-1.1,1.7-1.1,2.7v15.8
	c0,3.2,1.2,6.2,3.5,8.5c2.3,2.3,5.3,3.6,8.4,3.6c2.1,0,4.3-0.6,6-1.7c1.8-1.1,2.8-2.7,2.8-4.4c0-1-0.4-1.8-1-2.5
	C94.6,33.7,93.7,33.4,92.9,33.4z"/>
<path class="st0" d="M110.5,19.2c-3.1,0-6.2,1.3-8.4,3.5c-2.3,2.3-3.5,5.3-3.5,8.4c0,3.1,1.3,6.2,3.5,8.4c2.2,2.2,5.3,3.5,8.4,3.5
	c3.1,0,6.2-1.3,8.4-3.5c2.2-2.2,3.5-5.3,3.5-8.4c0-3.1-1.2-6.1-3.5-8.4C116.7,20.4,113.7,19.2,110.5,19.2z M114.2,34.8
	c-1,1-2.3,1.5-3.7,1.5c-1.4,0-2.7-0.5-3.7-1.5c-1.1-1-1.6-2.3-1.6-3.7c0-1.4,0.5-2.7,1.6-3.8c1-1,2.4-1.5,3.7-1.5
	c1.4,0,2.7,0.5,3.8,1.5c1.1,1.1,1.6,2.3,1.6,3.8C115.9,32.6,115.3,33.8,114.2,34.8z"/>
<path class="st0" d="M142.7,30.2c-1.3-1.3-3.2-2.1-5.1-2.1h-4c-1.8,0-2-0.5-2-1c0-0.4,0-0.8,0.2-1c0.2-0.3,0.7-0.5,1.5-0.5h7.8
	c0.6,0,1.3-0.3,1.8-0.9c0.5-0.6,0.8-1.9,0.8-2.7c0-0.9-0.3-1.7-0.9-2.2c-0.6-0.5-1.2-0.8-2-0.8h-7.9c-1.9,0-3.7,0.8-5.1,2.1
	c-1.3,1.3-2,3-2,4.9c0,0.9,0.2,2.9,0.5,3.7c0.7,1.7,1.2,2.3,2.5,3.2c1.2,0.9,2.8,1,4.4,1h3.2c1,0,1.9,0,2.3,0.3
	c0.2,0.1,0.4,0.1,0.3,0.7c0,0.4-0.2,1-1.2,1c-0.3,0.1-1,0.1-1.5,0.1H128c-1.6,0-2.6,1.6-2.6,3.4c0,1.2,0.3,2,1,2.5
	c0.6,0.4,1.4,0.7,2.5,0.7h8.8c1.9,0,3.7-0.8,5-2.2c1.2-1.4,1.9-3.2,1.9-5.1C144.7,33.5,144,31.5,142.7,30.2z"/>
</svg>
